<svg width="20" height="12" viewBox="0 0 20 12" fill="none" xmlns="http://www.w3.org/2000/svg">
<path fill-rule="evenodd" clip-rule="evenodd" d="M0.334305 0.892608L6.39838 5.60118L0.302514 11.0581C0.110795 10.7512 0 10.3885 0 10V2C0 1.59046 0.123095 1.20967 0.334305 0.892608ZM1.02971 11.7493L7.20126 6.2246L8.46676 7.20722C9.3689 7.90771 10.6311 7.90771 11.5332 7.20722L12.7987 6.2246L18.9703 11.7493C18.6829 11.909 18.3521 12 18 12H2C1.64791 12 1.31708 11.909 1.02971 11.7493ZM19.6975 11.0581C19.8892 10.7512 20 10.3885 20 10V2C20 1.59046 19.8769 1.20967 19.6657 0.892608L13.6016 5.60118L19.6975 11.0581ZM1.09405 0.216472C1.36604 0.0780435 1.6739 0 2 0H18C18.3261 0 18.634 0.0780435 18.9059 0.216472L10.9199 6.41737C10.3787 6.83766 9.62134 6.83766 9.08005 6.41736L1.09405 0.216472Z" fill="#3A3A3A"/>
</svg>
