<svg width="24" height="24" viewBox="0 0 24 24" fill="none" xmlns="http://www.w3.org/2000/svg">
<path d="M3.85506 1.61719H20.1684C21.874 1.61719 23.2617 3.00462 23.2617 4.71053V14.6939C23.2617 16.396 21.8801 17.7812 20.1794 17.7873V22.3176L13.6687 17.7873H3.85506C2.14943 17.7873 0.761723 16.3996 0.761723 14.6939V4.71053C0.761723 3.00462 2.14943 1.61719 3.85506 1.61719ZM2.08008 14.6939C2.08008 15.6725 2.87632 16.4689 3.85506 16.4689H14.0824L18.861 19.7942V16.4689H20.1684C21.1471 16.4689 21.9434 15.6725 21.9434 14.6939V4.71053C21.9434 3.73164 21.1471 2.93555 20.1684 2.93555H3.85506C2.87632 2.93555 2.08008 3.73164 2.08008 4.71053V14.6939Z" fill="white"/>
<path d="M17.2397 6.27551H6.78375V7.59387H17.2397V6.27551Z" fill="white"/>
<path d="M17.2397 9.08801H6.78375V10.4064H17.2397V9.08801Z" fill="white"/>
<path d="M17.2397 11.9005H6.78375V13.2189H17.2397V11.9005Z" fill="white"/>
</svg>
