<svg width="17" height="18" viewBox="0 0 17 18" fill="none" xmlns="http://www.w3.org/2000/svg">
<path fill-rule="evenodd" clip-rule="evenodd" d="M14 8.5C14 12.0102 11.2561 14.75 8 14.75C4.74386 14.75 2 12.0102 2 8.5C2 4.98976 4.74386 2.25 8 2.25C11.2561 2.25 14 4.98976 14 8.5ZM12.9176 15.0078C11.561 16.0995 9.85415 16.75 8 16.75C3.58172 16.75 0 13.0563 0 8.5C0 3.94365 3.58172 0.25 8 0.25C12.4183 0.25 16 3.94365 16 8.5C16 10.4121 15.3692 12.1723 14.3105 13.5713L16.7179 16.0539L15.2821 17.4461L12.9176 15.0078Z" fill="#C4C4C4"/>
</svg>
