<svg width="24" height="24" viewBox="0 0 24 24" fill="none" xmlns="http://www.w3.org/2000/svg">
<g clip-path="url(#clip0_78_44)">
<path d="M12 5.16107C8.22898 5.16107 5.16104 8.22901 5.16104 12C5.16104 15.771 8.22898 18.8389 12 18.8389C15.771 18.8389 18.8389 15.771 18.8389 12C18.8389 8.22901 15.771 5.16107 12 5.16107ZM12 17.4334C9.00399 17.4334 6.56659 14.996 6.56659 12C6.56659 9.00403 9.00399 6.56662 12 6.56662C14.9959 6.56662 17.4333 9.00403 17.4333 12C17.4333 14.996 14.9959 17.4334 12 17.4334Z" fill="white"/>
<path d="M24 14.7809V9.21903H21.562C21.359 8.51949 21.0795 7.84572 20.7269 7.20587L22.4517 5.48112L18.5189 1.5483L16.7941 3.27305C16.1543 2.92054 15.4805 2.64107 14.7809 2.43802V0H9.21903V2.43802C8.51949 2.64102 7.84572 2.92054 7.20587 3.27305L5.48112 1.5483L1.5483 5.48112L3.27305 7.20587C2.92054 7.84572 2.64107 8.51949 2.43802 9.21903H0V14.7809H2.43802C2.64107 15.4805 2.92054 16.1543 3.27305 16.7941L1.5483 18.5188L5.48112 22.4517L7.20587 20.7269C7.84572 21.0794 8.51949 21.3589 9.21903 21.5619V24H14.7809V21.5619C15.4805 21.3589 16.1543 21.0794 16.7941 20.7269L18.5189 22.4517L22.4517 18.5188L20.7269 16.7941C21.0795 16.1542 21.359 15.4805 21.562 14.7809H24ZM20.464 18.5189L18.5188 20.464L17.0078 18.953L16.5335 19.2502C15.7251 19.7568 14.8461 20.1214 13.9209 20.3337L13.3753 20.4589V22.5945H10.6245V20.4589L10.0789 20.3337C9.15372 20.1214 8.27474 19.7568 7.46641 19.2502L6.99208 18.953L5.48107 20.464L3.53598 18.5189L5.04699 17.0079L4.74972 16.5335C4.24311 15.7252 3.87856 14.8462 3.66623 13.921L3.54104 13.3754H1.40555V10.6246H3.54109L3.66628 10.079C3.87861 9.15381 4.24316 8.27483 4.74977 7.4665L5.04704 6.99218L3.53603 5.48117L5.48112 3.53608L6.99213 5.04709L7.46645 4.74981C8.27488 4.24316 9.15386 3.87861 10.079 3.66632L10.6246 3.54114V1.40555H13.3754V3.54109L13.921 3.66628C14.8462 3.87861 15.7252 4.24316 16.5335 4.74977L17.0079 5.04704L18.5189 3.53603L20.464 5.48112L18.9529 6.99213L19.2502 7.4665C19.7569 8.27483 20.1214 9.15381 20.3338 10.079L20.459 10.6246H22.5945V13.3754H20.459L20.3338 13.921C20.1214 14.8462 19.7569 15.7252 19.2502 16.5335L18.9529 17.0079L20.464 18.5189Z" fill="white"/>
<path d="M14.7141 10.1675C14.4711 10.4106 14.0756 10.4106 13.8325 10.1675C13.5894 9.92446 13.5894 9.52894 13.8325 9.28592L14.3524 8.76601L13.3586 7.77209L12.8386 8.29205C12.2221 8.90853 12.0862 9.82617 12.4305 10.5757L10.5756 12.4306C9.82616 12.0862 8.90848 12.2222 8.29201 12.8386L7.77209 13.3586L8.766 14.3525L9.28591 13.8325C9.40365 13.7148 9.56023 13.6499 9.72674 13.6499C9.8933 13.6499 10.0498 13.7148 10.1676 13.8325C10.2853 13.9502 10.3502 14.1068 10.3502 14.2733C10.3502 14.4398 10.2853 14.5964 10.1676 14.7141L9.64765 15.234L10.6415 16.2279L11.1615 15.708C11.7779 15.0915 11.9139 14.1739 11.5695 13.4244L13.4244 11.5694C13.693 11.6928 13.9832 11.7546 14.2733 11.7546C14.7929 11.7546 15.3125 11.5569 15.708 11.1613L16.228 10.6413L15.2341 9.64747L14.7141 10.1675Z" fill="white"/>
</g>
<defs>
<clipPath id="clip0_78_44">
<rect width="24" height="24" fill="white"/>
</clipPath>
</defs>
</svg>
