<svg width="32" height="32" viewBox="0 0 32 32" fill="none" xmlns="http://www.w3.org/2000/svg">
<g clip-path="url(#clip0_9_50)">
<path d="M24.0793 7.61993L10.9187 15.7256C10.174 16.1853 9.82152 17.0934 10.0615 17.9333L11.4845 22.9333C11.606 23.3596 11.9854 23.6429 12.4219 23.6429C12.4462 23.6429 12.4708 23.6421 12.4954 23.6403C12.962 23.6064 13.3313 23.2588 13.3933 22.7956L13.7633 20.0539C13.8132 19.6851 13.991 19.3419 14.2634 19.0883L25.1237 8.99306C25.4519 8.68875 25.4953 8.19043 25.2248 7.834C24.954 7.47725 24.4618 7.385 24.0793 7.61993ZM13.395 18.1549C12.907 18.6091 12.5891 19.2229 12.4998 19.8833L12.3204 21.2132L11.2875 17.5837C11.2035 17.2897 11.3271 16.9718 11.5878 16.8109L21.2289 10.8729L13.395 18.1549Z" fill="#181818"/>
<path d="M31.4794 2.33637C31.0682 1.98787 30.5008 1.89193 29.9983 2.08606L0.942517 13.2949C0.36708 13.5169 -0.00292014 14.0587 1.73635e-05 14.6752C0.00301736 15.2924 0.378455 15.8312 0.957267 16.0481L7.74414 18.5811L10.3916 27.0952C10.537 27.5632 10.9039 27.9269 11.373 28.0681C11.8419 28.2091 12.3483 28.1082 12.7268 27.7987L16.673 24.5816C16.8625 24.4271 17.1331 24.4195 17.331 24.5632L24.4487 29.7307C24.7048 29.9169 25.007 30.0127 25.3126 30.0127C25.4917 30.0127 25.672 29.9798 25.845 29.9129C26.3128 29.732 26.6531 29.3309 26.755 28.8402L31.9693 3.75843C32.0788 3.23031 31.8911 2.68543 31.4794 2.33637ZM30.721 3.49937L25.5068 28.5811C25.4879 28.6717 25.4226 28.7094 25.3854 28.7239C25.3479 28.7384 25.2738 28.7544 25.1981 28.6993L18.0801 23.5315C17.762 23.3005 17.3878 23.1858 17.0144 23.1858C16.607 23.1858 16.2002 23.3224 15.8677 23.5932L11.9206 26.8111C11.8503 26.8686 11.7774 26.8583 11.7403 26.8471C11.7029 26.8359 11.6362 26.804 11.6091 26.7167L8.86877 17.9039C8.8102 17.7156 8.6677 17.5649 8.48295 17.4959L1.40389 14.8539C1.29789 14.8142 1.27533 14.7315 1.27502 14.6691C1.2747 14.6072 1.29645 14.5249 1.40145 14.4844L30.4573 3.27556C30.4574 3.2755 30.4576 3.27543 30.4578 3.27537C30.5521 3.23893 30.622 3.28081 30.6552 3.30893C30.6886 3.33737 30.7417 3.39987 30.721 3.49937Z" fill="#181818"/>
<path d="M26.7176 15.7589C26.3735 15.6841 26.0341 15.9026 25.9594 16.2466L25.8625 16.6929C25.7879 17.0369 26.0062 17.3764 26.3503 17.4511C26.3959 17.4609 26.4413 17.4657 26.4862 17.4657C26.7796 17.4657 27.0437 17.2618 27.1085 16.9634L27.2054 16.5171C27.28 16.1731 27.0616 15.8336 26.7176 15.7589Z" fill="#181818"/>
<path d="M26.0801 18.6951C25.7356 18.6204 25.3965 18.8388 25.3218 19.1829L23.8556 25.9361C23.781 26.2801 23.9993 26.6196 24.3433 26.6942C24.389 26.7041 24.4344 26.7089 24.4792 26.7089C24.7727 26.7089 25.0367 26.505 25.1016 26.2066L26.5678 19.4533C26.6425 19.1092 26.4241 18.7698 26.0801 18.6951Z" fill="#181818"/>
</g>
<defs>
<clipPath id="clip0_9_50">
<rect width="32" height="32" fill="white"/>
</clipPath>
</defs>
</svg>
