<svg width="32" height="32" viewBox="0 0 32 32" fill="none" xmlns="http://www.w3.org/2000/svg">
<path d="M19.0473 0H12.9521C6.56809 0 1.37421 5.19266 1.37421 11.5755V17.0661C1.37421 21.8194 4.29504 26.0913 8.68696 27.8311V31.3906C8.68696 31.6319 8.82895 31.8501 9.04955 31.9476C9.12877 31.9829 9.21287 32 9.29636 32C9.44444 32 9.5913 31.9458 9.70526 31.8422L13.2391 28.6416H19.0473C25.4313 28.6416 30.6252 23.449 30.6252 17.0661V11.5755C30.6252 5.19266 25.4313 0 19.0473 0ZM29.4064 17.0661C29.4064 22.7768 24.7598 27.4228 19.0473 27.4228H13.0039C12.8528 27.4228 12.7071 27.4789 12.595 27.5807L9.90575 30.0164V27.4088C9.90575 27.1504 9.74304 26.9201 9.49928 26.8348C5.3688 25.374 2.593 21.4483 2.593 17.0661V11.5755C2.593 5.86483 7.24025 1.21879 12.9521 1.21879H19.0473C24.7598 1.21879 29.4064 5.86483 29.4064 11.5755V17.0661Z" fill="#181818"/>
<path d="M24.0535 18.5823L20.3081 16.1496C19.8986 15.8833 19.4111 15.7931 18.934 15.8918C18.4562 15.9924 18.0455 16.2745 17.7791 16.6859L17.603 16.9564C15.982 16.4208 14.1947 15.7364 13.1246 12.6389L13.5676 12.2537C14.3281 11.5925 14.408 10.4359 13.7468 9.67416L10.8168 6.30359C10.5962 6.04947 10.2111 6.02327 9.95694 6.24326L8.11717 7.84232C6.50349 9.24515 7.25732 11.3201 7.50534 12.0021C7.51631 12.0325 7.52972 12.0618 7.54556 12.0904C7.60955 12.205 9.1373 14.9314 11.6047 17.4446C14.0819 19.9681 18.5543 22.2984 18.6914 22.3661C19.2021 22.6976 19.7767 22.8566 20.3453 22.8566C21.3435 22.8566 22.3222 22.3673 22.906 21.4702L24.2333 19.4263C24.4161 19.143 24.3356 18.7657 24.0535 18.5823ZM21.8834 20.806C21.3344 21.6518 20.1997 21.8919 19.3039 21.3142C19.2594 21.2911 14.8163 18.9772 12.4744 16.5914C10.2854 14.3616 8.832 11.8844 8.63394 11.5389C8.1513 10.1854 8.23662 9.35362 8.9167 8.7625L10.297 7.56321L12.8272 10.4737C13.0521 10.7321 13.0259 11.1099 12.7687 11.3335L12.021 11.9832C11.8388 12.1416 11.7668 12.3921 11.8381 12.6224C13.113 16.7651 15.592 17.5786 17.4019 18.1728L17.6658 18.2599C17.9297 18.3489 18.2185 18.2471 18.3697 18.0144L18.8017 17.3489C18.8907 17.2112 19.0272 17.1179 19.1856 17.0844C19.3447 17.0503 19.5068 17.082 19.6445 17.1716L22.8792 19.2722L21.8834 20.806Z" fill="#181818"/>
<path d="M17.391 9.90086C17.0668 9.80762 16.7298 9.99592 16.6378 10.3201C16.5457 10.6437 16.7334 10.9807 17.057 11.0727C17.965 11.3311 18.6884 12.0557 18.9443 12.9643C19.0199 13.2324 19.2643 13.4085 19.5306 13.4085C19.5854 13.4085 19.6409 13.4012 19.6963 13.386C20.0199 13.2946 20.2088 12.9582 20.1174 12.634C19.7475 11.3214 18.7024 10.2738 17.391 9.90086Z" fill="#181818"/>
<path d="M22.0285 13.5402C22.0833 13.5402 22.1388 13.5329 22.1943 13.5176C22.5185 13.4262 22.7068 13.0892 22.6153 12.7656C21.8963 10.2165 19.8676 8.18358 17.3203 7.4584C16.9967 7.36517 16.6597 7.55469 16.5677 7.87828C16.4757 8.20187 16.6634 8.53886 16.987 8.63088C19.1302 9.24028 20.8371 10.9521 21.4423 13.0965C21.5184 13.3647 21.7622 13.5402 22.0285 13.5402Z" fill="#181818"/>
<path d="M17.0576 4.62044C16.7334 4.52721 16.3964 4.71551 16.3044 5.04032C16.2124 5.36391 16.4001 5.7009 16.7237 5.79292C20.355 6.82585 23.2479 9.72535 24.2729 13.3592C24.3484 13.6273 24.5928 13.8034 24.8591 13.8034C24.9139 13.8034 24.9694 13.7961 25.0248 13.7809C25.3484 13.6895 25.5374 13.3525 25.4459 13.0289C24.307 8.99042 21.093 5.76915 17.0576 4.62044Z" fill="#181818"/>
</svg>
