<svg width="32" height="32" viewBox="0 0 32 32" fill="none" xmlns="http://www.w3.org/2000/svg">
<path d="M16 0C7.17723 0 0 7.17723 0 16C0 19.0098 0.836308 21.9317 2.42277 24.4689C1.79077 26.6831 0.649231 30.8714 0.636923 30.9151C0.577846 31.1317 0.641231 31.3631 0.803077 31.5188C0.964923 31.6745 1.19877 31.7298 1.41169 31.6646L7.75385 29.7138C10.2382 31.2105 13.0831 32 16 32C24.8228 32 32 24.8228 32 16C32 7.17723 24.8228 0 16 0ZM16 30.7692C13.2191 30.7692 10.5102 29.992 8.16554 28.5225C8.06646 28.4603 7.95262 28.4289 7.83877 28.4289C7.77785 28.4289 7.71692 28.4382 7.65785 28.456L2.12 30.1606C2.52677 28.6757 3.25785 26.0197 3.68185 24.5422C3.73108 24.3711 3.70338 24.1865 3.60677 24.0369C2.05231 21.6449 1.23077 18.8658 1.23077 16C1.23077 7.85662 7.85662 1.23077 16 1.23077C24.1434 1.23077 30.7692 7.85662 30.7692 16C30.7692 24.1434 24.1434 30.7692 16 30.7692Z" fill="#181818"/>
<path d="M26.4523 19.7698C25.3163 19.1391 24.3489 18.5065 23.6431 18.0449C23.104 17.6929 22.7145 17.4388 22.4289 17.2954C21.6308 16.8972 21.0258 17.1785 20.7957 17.4111C20.7668 17.44 20.7409 17.4714 20.7188 17.5046C19.8898 18.7483 18.8074 19.9378 18.4905 20.0018C18.1243 19.9446 16.4105 18.9705 14.7071 17.552C12.968 16.1028 11.8738 14.7151 11.7132 13.7698C12.8289 12.6215 13.2308 11.8991 13.2308 11.0769C13.2308 10.2295 11.2542 6.69169 10.8966 6.33415C10.5378 5.976 9.72984 5.92 8.49477 6.16615C8.376 6.19015 8.26646 6.24862 8.18031 6.33415C8.03077 6.48369 4.53169 10.0511 6.19446 14.3748C8.01969 19.12 12.7046 24.6357 18.6775 25.5317C19.3563 25.6332 19.9926 25.6837 20.5883 25.6837C24.1022 25.6837 26.176 23.9157 26.76 20.4086C26.8037 20.152 26.68 19.896 26.4523 19.7698ZM18.8603 24.3145C12.544 23.3674 8.56554 17.1095 7.34338 13.9329C6.13108 10.7822 8.36677 7.97292 8.928 7.33785C9.38461 7.26031 9.86523 7.22769 10.0658 7.25908C10.4849 7.84185 11.936 10.5834 12 11.0769C12 11.4 11.8948 11.8498 10.6418 13.1034C10.5262 13.2185 10.4615 13.3748 10.4615 13.5385C10.4615 16.7606 17.2578 21.2308 18.4615 21.2308C19.5083 21.2308 20.8732 19.4714 21.6505 18.3249C21.6954 18.3268 21.7711 18.3422 21.8788 18.3963C22.1003 18.5077 22.4843 18.7582 22.9698 19.0757C23.6111 19.4948 24.4628 20.0511 25.4683 20.6277C25.0117 22.8246 23.7354 25.0468 18.8603 24.3145Z" fill="#181818"/>
</svg>
